# xmcd
#
# Track frame offsets: 
#        150
#        11602
#        24306
#        36561
#        50909
#        63581
#        76332
#        87408
#        100200
#        112328
#        122825
#        133605
#        144856
#        158568
#        170075
#        181507
#        194585
#        206390
#        220222
#        232493
#
# Disc length: 3239 seconds
#
# Revision: 0
# Processed by: cddbd v1.5.2PL0 Copyright (c) Steve Scherf et al.
# Submitted via: ExactAudioCopy v1.0b3
#
DISCID=260ca514
DTITLE=Slim Whitman - Country Music Legends [CD2]
DYEAR=2007
DGENRE=Country
TTITLE0=How Can I Tell You
TTITLE1=Restless Heart
TTITLE2=There's A Rainbow In Every Teardrop
TTITLE3=Danny Boy
TTITLE4=North Wind
TTITLE5=Darlin' Don't Cry
TTITLE6=Ride Away
TTITLE7=Secret Love
TTITLE8=We Stood At The Altar
TTITLE9=Rose Marie
TTITLE10=Beautiful Dreamer
TTITLE11=The Singing Hills
TTITLE12=Roll On Silvery Moon
TTITLE13=When I Grow Too Old To Dream
TTITLE14=Cattle Call
TTITLE15=Blue Eyes Crying In The Rain
TTITLE16=When My Blue Moon Turns To Gold Again
TTITLE17=Tumbling Tumbleweeds
TTITLE18=I'm a Fool
TTITLE19=Serenade
EXTD=
EXTT0=
EXTT1=
EXTT2=
EXTT3=
EXTT4=
EXTT5=
EXTT6=
EXTT7=
EXTT8=
EXTT9=
EXTT10=
EXTT11=
EXTT12=
EXTT13=
EXTT14=
EXTT15=
EXTT16=
EXTT17=
EXTT18=
EXTT19=
PLAYORDER=
